<svg xmlns="http://www.w3.org/2000/svg" version="1.1" xmlns:xlink="http://www.w3.org/1999/xlink" xmlns:svgjs="http://svgjs.dev/svgjs" width="100%" height="100%" viewBox="0 0 1000 600"><rect width="1000" height="600" x="0" y="0" fill="#072c50"/><g><rect width="333.3333333333333" height="333.3333333333333" rx="13.333333333333334" ry="13.333333333333334" y="170.67489171793312" fill="green" transform="matrix(0.8420191685444443,0,0,0.8420191685444443,0,15.951931254718488)" x="148.4526824951172"/><path d="M304.03640842524385 412.3415459643416L249.30879368874596 412.3415459643416Q247.51640455982135 412.3415459643416 246.62020999535906 410.25042531392955Q245.7538885830455 408.1294315113688 245.7538885830455 406.9942517297165L245.7538885830455 406.9942517297165Q245.7538885830455 403.52896608046234 249.21917423229974 403.1107419503799L249.21917423229974 403.1107419503799Q254.23786379328862 402.6925178202975 259.3461728107237 401.25860651715783Q264.42460867601017 399.85456836616686 264.42460867601017 396.38928271691265L264.42460867601017 396.38928271691265L264.54410128460506 282.7518119430927Q264.54410128460506 278.24096596863245 262.1243759605569 276.23946477466666Q259.7046506365087 274.23796358070086 256.2991112915519 273.5508810812797Q252.89357194659516 272.86379858185865 249.63739836238216 272.56506706037123L249.63739836238216 272.56506706037123Q247.42678510337512 272.35595499533 246.62020999535906 271.6688724959089Q245.84350803949172 270.9817899964878 245.84350803949172 268.68155728103454L245.84350803949172 268.68155728103454Q245.84350803949172 267.5165043472336 246.73970260395402 265.42538369682154Q247.63589716841634 263.3043898942608 249.42828629734095 263.3043898942608L249.42828629734095 263.3043898942608Q255.70164824857704 263.3043898942608 260.24236737518606 263.27451674211204Q264.75321334964633 263.21477043781454 268.9354546504704 263.21477043781454L268.9354546504704 263.21477043781454Q277.77790768649845 263.21477043781454 282.9160898560823 263.0056583727733Q288.05427202566614 262.7965463077321 293.0132152823576 262.52768793839346Q297.94228538690027 262.25882956905474 306.00803646706095 262.3783221776497L306.00803646706095 262.3783221776497Q320.82511993283765 262.46794163409595 332.89387340093003 266.32157826128383Q344.9925000211711 270.145341736323 352.07243708042324 278.7488095551611Q359.1523741396755 287.3522773739992 359.1523741396755 302.0797413833297L359.1523741396755 302.0797413833297Q359.1523741396755 312.6847103961336 355.4481032732313 320.81020778059184Q351.7139592546383 328.9655783171988 344.185924913155 334.58173092116255Q336.6877637238204 340.1978835251263 325.3359659072979 343.2449450442981L325.3359659072979 343.2449450442981Q335.7318228550606 344.29050536950416 341.6168338283631 349.0702097133031Q347.5018448016655 353.849914057102 350.9671304509198 360.840231659908Q354.432416100174 367.80067611056523 357.3898581628996 375.62744197353595Q360.31742707347644 383.4542078365067 364.8282730479367 390.7133838086514L364.8282730479367 390.7133838086514Q368.4130513057859 397.5244624985649 372.59529260661 400.06368043120807Q376.80740705958283 402.5730252117025 380.69091683891946 402.9912493417849L380.69091683891946 402.9912493417849Q384.48480716180984 403.40947347186733 384.48480716180984 407.5020953162452L384.48480716180984 407.5020953162452Q384.48480716180984 408.6671482500462 383.5886125973476 410.4894105311195Q382.69241803288526 412.3415459643416 380.9000289039607 412.3415459643416L380.9000289039607 412.3415459643416L352.8491390362906 412.3415459643416Q348.2486736053841 412.3415459643416 344.9327537168736 407.6215879248402Q341.6168338283631 402.9016298853387 338.8983769828275 395.37359554385534Q336.15004698514304 387.8754343545208 333.2822243788637 379.5109517528726Q330.38452862043556 371.1763423033732 326.65038460184263 363.67818111403864Q322.9162405832497 356.1501467725553 317.56894634862465 351.4301887330538Q312.22165211399954 346.7102306935523 304.45463255532627 346.7102306935523L304.45463255532627 346.7102306935523L285.75403931021293 346.7102306935523L285.75403931021293 392.9239970676584Q285.75403931021293 397.43484304211864 288.68160822078977 399.4662173882332Q291.63905028351536 401.5274648864965 295.8212915843394 402.1548010816201Q300.03340603731226 402.78213727674375 303.8272963602027 403.1107419503799L303.8272963602027 403.1107419503799Q306.00803646706095 403.3198540154211 306.81461157507704 403.9471902105447Q307.5913135309444 404.57452640566834 307.5913135309444 406.9942517297165L307.5913135309444 406.9942517297165Q307.5913135309444 408.1294315113688 306.695118966482 410.25042531392955Q305.79892440201974 412.3415459643416 304.03640842524385 412.3415459643416L304.03640842524385 412.3415459643416ZM285.96315137525414 272.4455744517762L285.84365876665913 337.6586655924831L303.49869168656653 337.6586655924831Q312.22165211399954 337.6586655924831 319.6899401511854 334.94020874694746Q327.1283550362225 332.2217519014118 331.7586936192778 325.17168799430834Q336.35915905018425 318.1216240872049 336.35915905018425 305.33591496754275L336.35915905018425 305.33591496754275Q336.35915905018425 292.5203326957318 331.7586936192778 285.38064933218214Q327.1283550362225 278.24096596863245 319.152223412508 275.34327021020437Q311.17609178879354 272.4455744517762 301.07896636251826 272.4455744517762L301.07896636251826 272.4455744517762L285.96315137525414 272.4455744517762Z " fill="#57" transform="matrix(0.8420191685444443,0,0,0.8420191685444443,0,15.951931254718488)"/><path d="M565.8154518095907 372.86550068594346L565.8154518095907 372.86550068594346Q565.8154518095907 370.26071038578164 568.4202421097526 369.94633914265864L568.4202421097526 369.94633914265864Q572.2151521160229 369.6319678995357 576.0774273886766 368.55412363739975Q579.9397026613304 367.4987344640583 579.9397026613304 364.8939441638965L579.9397026613304 364.8939441638965L579.9397026613304 279.4747863896238Q579.9397026613304 276.08406798165447 577.9411997586201 274.57957703242306Q575.9202417671152 273.07508608319165 573.1582658453918 272.5586190409182Q570.3962899236685 272.0421519986447 567.9486852450682 271.81760111069974L567.9486852450682 271.81760111069974Q566.2870086742753 271.66041548913824 565.7031763656183 271.1439484468648Q565.1193440569614 270.6274814045913 565.1193440569614 268.8984395674149L565.1193440569614 268.8984395674149Q565.1193440569614 268.02269110442944 565.7705416320018 266.45083488881454Q566.4441942958367 264.8565235844052 567.7914996235068 264.8565235844052L567.7914996235068 264.8565235844052L645.1492805205544 264.78915831802163L647.9112564422778 290.4328697213391Q648.0684420638393 291.780175049009 646.9681427129087 292.4538277128439Q645.8678433619784 293.12748037667893 644.992094898993 293.12748037667893L644.992094898993 293.12748037667893Q643.734609926501 293.12748037667893 642.3199393324476 292.7008336895834Q640.9052687383942 292.25173191369345 639.9396999202307 290.52269007651705L639.9396999202307 290.52269007651705Q636.7959874890009 284.5945466347694 634.775029497496 280.6199959181432Q632.7540715059912 276.6229901127224 630.3513770049799 274.62448721001203Q627.9486825039685 272.60352921850716 623.6822156330138 272.60352921850716L623.6822156330138 272.60352921850716L596.8483845235879 272.6708944848907L596.8483845235879 315.47029372720505L615.3064675126657 315.38047337202704Q617.3723356817596 315.06610212890405 619.101377518936 312.39394656235874Q620.8528744449069 309.6993359070189 621.9980839734263 306.57807856458356Q623.1208384131512 303.4568212221483 623.3004791235073 301.8849650065334L623.3004791235073 301.8849650065334Q623.4576647450688 300.3131087909185 624.5579640959992 299.841551926234Q625.6582634469296 299.3699950615495 626.9157484194216 299.3699950615495L626.9157484194216 299.3699950615495Q627.791496882407 299.3699950615495 628.9816165885154 300.04364772538446Q630.1492812058293 300.69484530042496 630.1492812058293 302.0421506280949L630.1492812058293 302.0421506280949L630.1492812058293 337.0271789699237Q630.1492812058293 338.35202920879914 628.9816165885154 339.02568187263404Q627.791496882407 339.69933453646905 626.9157484194216 339.69933453646905L626.9157484194216 339.69933453646905Q625.6582634469296 339.69933453646905 624.4232335632322 339.1604124054011Q623.2106587683293 338.5990351855386 623.0534731467678 337.0945442363072L623.0534731467678 337.0945442363072Q622.9636527915898 335.3655023991308 621.8184432630703 331.997239079956Q620.6956888233454 328.6514308495757 618.876826630991 325.7996345726744Q617.0579644386366 322.9702933845676 614.8349106479814 322.9702933845676L614.8349106479814 322.9702933845676L596.8483845235879 323.0376586509511L596.8483845235879 361.3235850455712Q596.8483845235879 365.6798722717039 599.0489832254488 367.1843632209353Q601.2720370161042 368.6663990813723 603.8768273162659 368.9134050581117L603.8768273162659 368.9134050581117L626.3768262883535 368.8235847029337Q633.4726343474151 368.8235847029337 638.7720353029168 364.06310587850004Q644.048981169624 359.2801719652718 646.9007774465254 347.356519815393L646.9007774465254 347.356519815393Q647.2825139560318 345.8520288661617 649.1462863259751 345.3131067350937Q651.0100586959186 344.7517295152312 652.2675436684104 344.7517295152312L652.2675436684104 344.7517295152312Q653.7720346176418 344.7517295152312 654.8723339685723 345.42538217906616Q655.9726333195027 346.0990348429011 656.1298189410643 347.44634017057103L656.1298189410643 347.44634017057103L652.1777233132325 376.79514122498074L568.5100624649306 376.88496158015874Q567.1627571372608 376.88496158015874 566.4891044734258 375.31310536454384Q565.8154518095907 373.7187940601344 565.8154518095907 372.86550068594346ZM724.887300829819 376.88496158015874L668.772033932367 376.88496158015874Q667.8064651142035 376.88496158015874 666.8184412072455 376.1439436499403Q665.8304173002876 375.38047063092733 665.8304173002876 373.7187940601344L665.8304173002876 373.7187940601344Q665.8304173002876 372.39394382125903 666.751075940862 370.8894528720276Q667.649279492642 369.3849619227962 669.1537704418735 367.1843632209353L669.1537704418735 367.1843632209353L706.7435890838641 312.07957531923574L714.1537683860486 302.51370749277936L714.6253252507331 304.9613121713797L685.9726319489529 304.9613121713797Q683.367841648791 304.9613121713797 681.2346082133137 307.40891684998Q679.1013747778363 309.85652152858034 677.5295185622214 313.2921501141387Q675.935207257812 316.72777869969696 674.9920935284431 319.8939462197213Q674.0489797990741 323.0376586509511 673.8917941775126 324.47478433379894L673.8917941775126 324.47478433379894Q673.7346085559511 325.9568201942359 672.9935906257327 326.5181974140983Q672.2301176067197 327.0795746339608 670.9726326342278 327.0795746339608L670.9726326342278 327.0795746339608Q670.0968841712423 327.0795746339608 669.2660458858459 326.40592197012586Q668.4352076004494 325.7322693062909 668.5250279556275 324.384963978621L668.5250279556275 324.384963978621L670.0968841712423 301.6604141185884Q670.0968841712423 300.22328843574047 671.3768242325289 299.3699950615495Q672.6343092050207 298.4942465985641 673.8244289111292 298.40442624338607L673.8244289111292 298.40442624338607L727.3349055084193 298.40442624338607Q728.2780192377883 298.40442624338607 729.1537677007738 299.3250848839605Q730.0295161637591 300.22328843574047 730.0295161637591 301.3460428754654L730.0295161637591 301.3460428754654Q730.0295161637591 302.9852643574638 729.3109533223352 304.3325696851337Q728.5923904809113 305.6798750128036 727.9636479946653 306.5556234757891L727.9636479946653 306.5556234757891L690.3064640862912 361.63795628869417L680.3588597503283 374.1229856584354L678.8768238898913 370.3280756521651L711.5489780858868 370.3280756521651Q714.1537683860486 370.3280756521651 716.4890976206765 367.7681955295923Q718.8019717665098 365.2083154070195 720.6208339588642 361.61550119989965Q722.4396961512186 358.0226869927799 723.539995502149 354.7442440287831Q724.662749941874 351.4658010647863 724.8199355634355 350.05113047073286L724.8199355634355 350.05113047073286Q724.9771211849969 348.4568191663235 725.7181391152154 347.96280721284455Q726.4591570454339 347.44634017057103 727.7390971067204 347.44634017057103L727.7390971067204 347.44634017057103Q728.5923904809113 347.44634017057103 729.4681389438967 348.119992834406Q730.3438874068821 348.7711904094465 730.1867017853207 350.1184957371164L730.1867017853207 350.1184957371164L728.5923904809113 373.65142879375094Q728.5923904809113 375.15591974298235 727.3349055084193 375.9867580283788Q726.0774205359274 376.79514122498074 724.887300829819 376.88496158015874L724.887300829819 376.88496158015874ZM796.6537646170366 376.88496158015874L740.51604263079 376.88496158015874Q739.572928901421 376.88496158015874 738.5849049944632 376.1439436499403Q737.5968810875052 375.38047063092733 737.5968810875052 373.7187940601344L737.5968810875052 373.7187940601344Q737.5968810875052 372.39394382125903 738.5175397280796 370.8894528720276Q739.4157432798596 369.3849619227962 740.920234229091 367.1843632209353L740.920234229091 367.1843632209353L778.4875977822871 312.07957531923574L785.9202321732662 302.51370749277936L786.3917890379507 304.9613121713797L757.7390957361704 304.9613121713797Q755.1343054360086 304.9613121713797 753.0010720005312 307.40891684998Q750.8678385650538 309.85652152858034 749.2735272606445 313.2921501141387Q747.7016710450296 316.72777869969696 746.7585573156606 319.8939462197213Q745.8154435862916 323.0376586509511 745.6582579647302 324.47478433379894L745.6582579647302 324.47478433379894Q745.5010723431687 325.9568201942359 744.7375993241558 326.5181974140983Q743.9965813939373 327.0795746339608 742.7390964214454 327.0795746339608L742.7390964214454 327.0795746339608Q741.8633479584599 327.0795746339608 741.0325096730635 326.40592197012586Q740.201671387667 325.7322693062909 740.291491742845 324.384963978621L740.291491742845 324.384963978621L741.8633479584599 301.6604141185884Q741.8633479584599 300.22328843574047 743.1208329309519 299.3699950615495Q744.3783179034438 298.4942465985641 745.5684376095521 298.40442624338607L745.5684376095521 298.40442624338607L799.1013692956369 298.40442624338607Q800.0444830250059 298.40442624338607 800.9202314879913 299.3250848839605Q801.7735248621823 300.22328843574047 801.7735248621823 301.3460428754654L801.7735248621823 301.3460428754654Q801.7735248621823 302.9852643574638 801.0774171095527 304.3325696851337Q800.3588542681289 305.6798750128036 799.7301117818829 306.5556234757891L799.7301117818829 306.5556234757891L762.0729278735087 361.63795628869417L752.1253235375458 374.1229856584354L750.6208325883144 370.3280756521651L783.3154418731044 370.3280756521651Q785.9202321732662 370.3280756521651 788.2331063190995 367.7681955295923Q790.5684355537275 365.2083154070195 792.3872977460818 361.61550119989965Q794.2061599384363 358.0226869927799 795.3064592893667 354.7442440287831Q796.4067586402971 351.4658010647863 796.5639442618585 350.05113047073286L796.5639442618585 350.05113047073286Q796.7211298834201 348.4568191663235 797.4846029024329 347.96280721284455Q798.2256208326514 347.44634017057103 799.4831058051434 347.44634017057103L799.4831058051434 347.44634017057103Q800.3588542681289 347.44634017057103 801.2346027311143 348.119992834406Q802.0878961053052 348.7711904094465 801.9307104837437 350.1184957371164L801.9307104837437 350.1184957371164L800.3588542681289 373.65142879375094Q800.3588542681289 375.15591974298235 799.1013692956369 375.9867580283788Q797.843884323145 376.79514122498074 796.6537646170366 376.88496158015874L796.6537646170366 376.88496158015874ZM826.0923860266241 412.34154678667204L826.0923860266241 412.34154678667204Q822.387296375532 412.34154678667204 819.1986737667131 411.03915163659116Q815.9875960690998 409.73675648651016 814.101368610362 407.5137026958549Q812.1926860628296 405.31310399399393 812.1926860628296 402.6184933386541L812.1926860628296 402.6184933386541Q812.1926860628296 397.25172711676896 814.730111096608 395.11849368129157Q817.2450810415918 392.98526024581423 818.9965779675626 392.98526024581423L818.9965779675626 392.98526024581423L828.7869966819641 402.6184933386541Q830.8304097622633 402.2367568291476 833.1657389968913 400.2157988376428Q835.5010682315192 398.1948408461379 838.2630441532424 393.23226622255373Q841.0250200749658 388.247236510175 844.3259181277571 379.08556028201957L844.3259181277571 379.08556028201957L817.6492726398927 311.45083283298976Q815.2914883164703 307.498737205158 813.113344703404 306.1963420550771Q810.9352010903376 304.8939469049962 808.0160395470529 304.5795756618732L808.0160395470529 304.5795756618732Q806.35436297626 304.4223900403117 805.770530667603 303.90592299803825Q805.186698358946 303.3894559557648 805.186698358946 301.6604141185884L805.186698358946 301.6604141185884Q805.186698358946 300.7846656556029 805.8378959339865 299.5945459494945Q806.5115485978214 298.40442624338607 807.7914886591078 298.40442624338607L807.7914886591078 298.40442624338607L840.3738224999254 298.40442624338607Q841.7211278275953 298.40442624338607 842.3947804914302 299.5945459494945Q843.0684331552652 300.7846656556029 843.0684331552652 301.6604141185884L843.0684331552652 301.6604141185884Q843.0684331552652 304.2652044187502 840.4636428551033 304.5795756618732L840.4636428551033 304.5795756618732Q837.5444813118186 304.8939469049962 834.8274155676842 305.5675995688311Q832.0878947347553 306.2412522326661 832.0878947347553 308.84604253282794L832.0878947347553 308.84604253282794L851.3543609204352 361.1663994240097L868.7345996473771 308.84604253282794Q868.7345996473771 306.2412522326661 865.6133423049417 305.5675995688311Q862.4920849625064 304.8939469049962 859.5729234192216 304.5795756618732L859.5729234192216 304.5795756618732Q856.9681331190598 304.2652044187502 856.9681331190598 301.6604141185884L856.9681331190598 301.6604141185884Q856.9681331190598 300.7846656556029 857.6417857828948 299.5945459494945Q858.3154384467298 298.40442624338607 859.6402886856051 298.40442624338607L859.6402886856051 298.40442624338607L886.0923832855245 298.40442624338607Q887.4396886131944 298.40442624338607 888.1133412770293 299.5945459494945Q888.7869939408644 300.7846656556029 888.7869939408644 301.6604141185884L888.7869939408644 301.6604141185884Q888.7869939408644 303.3894559557648 888.180706543413 303.90592299803825Q887.5968742347559 304.4223900403117 885.935197663963 304.5795756618732L885.935197663963 304.5795756618732Q883.0160361206781 304.8939469049962 881.2420841059129 306.1963420550771Q879.4681320911475 307.498737205158 877.0878926789305 311.45083283298976L877.0878926789305 311.45083283298976L853.1732231127896 377.6035244215827Q851.5115465419966 382.1843625356604 849.1537622185742 388.0900508886135Q846.7735228063575 394.01819433036115 843.5399900199496 399.5870563513968Q840.3064572335419 405.1559183724325 835.9950801849982 408.74873257955227Q831.7061582252488 412.34154678667204 826.0923860266241 412.34154678667204ZM920.2016631643678 376.88496158015874L886.8109461269485 376.88496158015874Q885.531006065662 376.88496158015874 884.8348983130325 375.6723867852558Q884.1163354716086 374.43735690155836 884.1163354716086 372.86550068594346L884.1163354716086 372.86550068594346Q884.1163354716086 371.0466384935891 884.7226228690602 370.5750816289046Q885.306455177717 370.10352476422014 886.9681317485099 369.94633914265864L886.9681317485099 369.94633914265864Q888.9441795624259 369.6993331659192 891.2570537082593 369.65442298833017Q893.5923829428871 369.6319678995357 895.6807062007754 368.48675837101626Q897.7690294586638 367.3415488424968 899.0489695199502 363.86101007934957L899.0489695199502 363.86101007934957L935.2016624790929 263.1274817472288L947.8214223816012 263.1274817472288L982.9636363449915 363.86101007934957Q984.2211213174835 367.3415488424968 986.2645343977829 368.48675837101626Q988.3304025668767 369.6319678995357 990.6432767127101 369.65442298833017Q992.9786059473379 369.6993331659192 994.8872884948703 369.94633914265864L994.8872884948703 369.94633914265864Q996.5265099768687 370.10352476422014 997.1327973743203 370.5750816289046Q997.7166296829771 371.0466384935891 997.7166296829771 372.86550068594346L997.7166296829771 372.86550068594346Q997.7166296829771 373.7187940601344 997.0429770191422 375.31310536454384Q996.3693243553073 376.88496158015874 995.0444741164317 376.88496158015874L995.0444741164317 376.88496158015874L955.4786076605253 376.88496158015874Q954.1537574216497 376.88496158015874 953.4801047578148 375.31310536454384Q952.8064520939799 373.7187940601344 952.8064520939799 372.86550068594346L952.8064520939799 372.86550068594346Q952.8064520939799 370.26071038578164 955.4112423941417 369.94633914265864L955.4112423941417 369.94633914265864Q960.2166313961645 369.6993331659192 963.2256132946272 369.54214754435765Q966.2121401042956 369.3849619227962 966.2121401042956 367.5660997304418L966.2121401042956 367.5660997304418Q966.2121401042956 367.02717759937383 965.9875892163507 366.4658003795114L965.9875892163507 366.4658003795114L955.3214220389638 334.48975393614535L960.0594457746029 337.8804723441146L914.9920825640443 337.8804723441146L919.6402859445054 334.48975393614535L908.906753500735 366.4658003795114Q908.7495678791736 366.86999197781233 908.7495678791736 367.4089141088803L908.7495678791736 367.4089141088803Q908.7495678791736 369.3849619227962 912.0953761095539 369.4972373667687Q915.4636394287287 369.6319678995357 920.2690284307514 369.94633914265864L920.2690284307514 369.94633914265864Q922.8738187309132 370.26071038578164 922.8738187309132 372.86550068594346L922.8738187309132 372.86550068594346Q922.8738187309132 373.7187940601344 922.2001660670783 375.31310536454384Q921.5489684920378 376.88496158015874 920.2016631643678 376.88496158015874L920.2016631643678 376.88496158015874ZM938.2780096439393 283.179876040716L919.7301062996835 334.48975393614535L917.2825016210832 331.09903552817605L957.7016614511806 331.09903552817605L955.3214220389638 334.48975393614535L938.2780096439393 283.179876040716ZM1036.4741129422816 376.88496158015874L1002.9262102833007 376.88496158015874Q1001.5789049556308 376.88496158015874 1000.9277073805904 375.69484187405027Q1000.2540547167555 374.52717725673637 1000.2540547167555 373.65142879375094L1000.2540547167555 373.65142879375094Q1000.2540547167555 371.0466384935891 1002.8588450169173 370.7322672504661L1002.8588450169173 370.7322672504661Q1005.7780065602021 370.3280756521651 1008.8543537250484 369.2951415676182Q1011.9307008898948 368.2846625718658 1011.9307008898948 365.6798722717039L1011.9307008898948 365.6798722717039L1011.9980661562781 315.47029372720505Q1011.9980661562781 310.57508437000433 1009.9546530759789 308.75622217764993Q1007.9112399956795 306.93735998529553 1005.1492640739561 306.5556234757891Q1002.3872881522329 306.1514318774881 1000.2540547167555 305.5900546576256L1000.2540547167555 305.5900546576256Q999.4456715201536 305.20831814811913 998.9067493890855 304.5795756618732Q998.3453721692231 303.9508331756272 998.3453721692231 302.4463422263958L998.3453721692231 302.4463422263958Q998.3453721692231 301.5032284970269 998.8169290339076 300.26819861332945Q999.288485898592 299.05562381842657 1000.2540547167555 298.9658034632485L1000.2540547167555 298.9658034632485Q1008.1357908836244 298.4942465985641 1014.5354911900566 298.3370609770026Q1020.9351914964886 298.1798753554411 1024.325909904458 298.1798753554411L1024.325909904458 298.1798753554411Q1024.9546523907038 298.1798753554411 1025.7405804985115 298.80861784168707Q1026.5265086063189 299.437360327933 1026.6836942278803 301.3460428754654L1026.6836942278803 301.3460428754654L1026.6836942278803 363.0750819715421Q1026.6836942278803 366.4658003795114 1028.3004606210843 367.99274641753726Q1029.9396821030828 369.54214754435765 1032.1851909825325 370.01370440904213Q1034.4306998619822 370.4852612737266 1036.3169273207202 370.7322672504661L1036.3169273207202 370.7322672504661Q1037.978603891513 370.8894528720276 1038.56243620017 371.3610097367121Q1039.1687235976215 371.83256660139654 1039.1687235976215 373.65142879375094L1039.1687235976215 373.65142879375094Q1039.1687235976215 374.52717725673637 1038.4950709337866 375.69484187405027Q1037.8214182699517 376.88496158015874 1036.4741129422816 376.88496158015874L1036.4741129422816 376.88496158015874ZM1019.1163293041343 284.2801753916465L1019.1163293041343 284.2801753916465Q1014.782497166796 284.2801753916465 1012.1552517778398 281.09155278282765Q1009.5504614776779 277.88047508521436 1009.5504614776779 273.29963697113664L1009.5504614776779 273.29963697113664Q1009.5504614776779 268.6514335906754 1012.1552517778398 265.4852660706511Q1014.782497166796 262.3415536394213 1019.1163293041343 262.3415536394213L1019.1163293041343 262.3415536394213Q1023.4501614414726 262.3415536394213 1026.0549517416343 265.4852660706511Q1028.659742041796 268.6514335906754 1028.659742041796 273.29963697113664L1028.659742041796 273.29963697113664Q1028.659742041796 277.88047508521436 1026.0549517416343 281.09155278282765Q1023.4501614414726 284.2801753916465 1019.1163293041343 284.2801753916465Z " fill="#b88746" transform="matrix(0.8420191685444443,0,0,0.8420191685444443,0,15.951931254718488)"/></g></svg>